<?xml version="1.0"?>
<svg xmlns="http://www.w3.org/2000/svg" id="Icons" height="512px" viewBox="0 0 74 74" width="512px"><path d="m55.78 72a3.462 3.462 0 0 1 -.388-.016 4.5 4.5 0 0 1 -4.11-4.807 11.63 11.63 0 0 0 -.049-1.514c-.334-3.8-2.482-13.6-15.081-23.126a41.232 41.232 0 0 0 -8.725 9.43 29.521 29.521 0 0 0 -3.368 6.849 25 25 0 0 0 -1.31 6.811c-.029.581-.039 1.179-.029 1.787a4.5 4.5 0 0 1 -9 .176c-.293-14.729 8.9-25.24 15.039-30.59-6.134-5.35-15.332-15.861-15.039-30.59a4.557 4.557 0 0 1 4.585-4.41 4.508 4.508 0 0 1 4.415 4.59c-.01.6 0 1.2.029 1.78a25.012 25.012 0 0 0 1.308 6.81 29.541 29.541 0 0 0 3.369 6.851 41.376 41.376 0 0 0 8.727 9.423 45.59 45.59 0 0 0 9.478-9.461 32.259 32.259 0 0 0 3.862-6.868 23.791 23.791 0 0 0 1.741-6.8 12.059 12.059 0 0 0 .05-1.491 4.538 4.538 0 0 1 4.173-4.816 4.479 4.479 0 0 1 4.8 4.13c.029.352.643 8.772-5.857 18.952a1 1 0 1 1 -1.686-1.076c6.141-9.615 5.574-17.383 5.546-17.709a2.49 2.49 0 0 0 -2.671-2.295 2.523 2.523 0 0 0 -2.314 2.67 13.022 13.022 0 0 1 -.048 1.81 25.784 25.784 0 0 1 -1.882 7.377 34.2 34.2 0 0 1 -4.1 7.29 48.056 48.056 0 0 1 -10.513 10.349 1 1 0 0 1 -1.2-.011 43.623 43.623 0 0 1 -9.781-10.377 31.58 31.58 0 0 1 -3.592-7.312 27.012 27.012 0 0 1 -1.41-7.349c-.031-.619-.041-1.26-.031-1.913a2.5 2.5 0 0 0 -2.448-2.554h-.041a2.484 2.484 0 0 0 -2.509 2.451c-.292 14.633 9.411 24.94 15.22 29.781a1 1 0 0 1 0 1.536c-5.809 4.841-15.512 15.148-15.22 29.782a2.5 2.5 0 0 0 5-.1q-.015-.987.031-1.921a27 27 0 0 1 1.412-7.35 31.534 31.534 0 0 1 3.591-7.309 43.532 43.532 0 0 1 9.78-10.387 1 1 0 0 1 1.2-.009c13.793 10.15 16.129 20.877 16.493 25.018a13.074 13.074 0 0 1 .05 1.842 2.5 2.5 0 0 0 2.3 2.658 1.485 1.485 0 0 0 .2.007 2.5 2.5 0 0 0 2.483-2.306c.007-.081.556-7-4.375-15.764a1 1 0 1 1 1.743-.98c5.232 9.3 4.652 16.6 4.625 16.908a4.51 4.51 0 0 1 -4.473 4.143z" fill="#49C0D0"/><path d="m45.03 35.5a1 1 0 0 1 -.672-1.741c1.092-.99 2.059-1.931 2.957-2.878a1 1 0 0 1 1.45 1.377c-.932.983-1.934 1.958-3.063 2.983a1 1 0 0 1 -.672.259z" fill="#49C0D0"/><path d="m49.851 45.44a1 1 0 0 1 -.763-.353c-.841-.99-1.755-1.979-2.715-2.94a1 1 0 0 1 1.414-1.414c1 1 1.95 2.028 2.825 3.059a1 1 0 0 1 -.761 1.648z" fill="#49C0D0"/><path d="m52.23 9.42h-30.48a1 1 0 0 1 0-2h30.48a1 1 0 0 1 0 2z" fill="#49C0D0"/><path d="m50.42 16.5h-27.31a1 1 0 0 1 0-2h27.31a1 1 0 0 1 0 2z" fill="#49C0D0"/><path d="m46.44 23.58h-19.85a1 1 0 0 1 0-2h19.85a1 1 0 0 1 0 2z" fill="#49C0D0"/><path d="m52.23 66.58h-30.48a1 1 0 0 1 0-2h30.48a1 1 0 1 1 0 2z" fill="#49C0D0"/><path d="m50.42 59.5h-27.31a1 1 0 0 1 0-2h27.31a1 1 0 0 1 0 2z" fill="#49C0D0"/><path d="m46.44 52.42h-19.85a1 1 0 0 1 0-2h19.85a1 1 0 0 1 0 2z" fill="#49C0D0"/></svg>
