<?xml version="1.0"?>
<svg xmlns="http://www.w3.org/2000/svg" id="Icons" height="512px" viewBox="0 0 74 74" width="512px"><path d="m71 55.88h-9.81a1 1 0 0 1 0-2h8.81v-16.215c-2.3-8.24-10.34-16.642-11.952-18.265h-18.678a1 1 0 0 1 0-2h19.09a1 1 0 0 1 .694.28c.414.4 10.179 9.893 12.811 19.588a1 1 0 0 1 .035.262v17.35a1 1 0 0 1 -1 1z" fill="#FFFFFF"/><path d="m22.49 19.4h-3a1 1 0 0 1 0-2h3a1 1 0 1 1 0 2z" fill="#FFFFFF"/><path d="m11.99 55.88h-8.99a1 1 0 0 1 -1-1v-24.86a12.61 12.61 0 0 1 10.309-12.4 1 1 0 1 1 .363 1.966 10.611 10.611 0 0 0 -8.672 10.434v23.86h7.99a1 1 0 1 1 0 2z" fill="#FFFFFF"/><path d="m32.36 19.4h-2.93a1 1 0 0 1 0-2h2.93a1 1 0 0 1 0 2z" fill="#FFFFFF"/><path d="m47.169 55.876h-21.169a1 1 0 1 1 0-2h21.169a1 1 0 0 1 0 2z" fill="#FFFFFF"/><path d="m71 50.008h-3.437a1.446 1.446 0 0 1 -1.444-1.444v-5.041a1.446 1.446 0 0 1 1.444-1.444h3.437a1 1 0 0 1 1 1v5.929a1 1 0 0 1 -1 1zm-2.881-2h1.881v-3.929h-1.881z" fill="#FFFFFF"/><path d="m54.181 62.986a8.01 8.01 0 1 1 8.009-8.009 8.019 8.019 0 0 1 -8.009 8.009zm0-14.019a6.01 6.01 0 1 0 6.009 6.01 6.017 6.017 0 0 0 -6.009-6.01z" fill="#FFFFFF"/><path d="m19 62.986a8.01 8.01 0 1 1 8.01-8.009 8.019 8.019 0 0 1 -8.01 8.009zm0-14.019a6.01 6.01 0 1 0 6.01 6.01 6.017 6.017 0 0 0 -6.01-6.01z" fill="#FFFFFF"/><path d="m61.943 38.7h-49.952a1 1 0 0 1 -1-1v-6.43a5.716 5.716 0 0 1 5.71-5.71h39.499a1 1 0 0 1 .689.276c.237.224 5.8 5.577 6.054 11.822a1 1 0 0 1 -1 1.042zm-48.952-2h47.852c-.655-4.3-4.064-8.107-5.06-9.14h-39.083a3.714 3.714 0 0 0 -3.71 3.71z" fill="#FFFFFF"/><path d="m47.5 38.7a1 1 0 0 1 -1-1v-11.145a1 1 0 1 1 2 0v11.145a1 1 0 0 1 -1 1z" fill="#FFFFFF"/><path d="m36.392 38.7a1 1 0 0 1 -1-1v-11.145a1 1 0 0 1 2 0v11.145a1 1 0 0 1 -1 1z" fill="#FFFFFF"/><path d="m25.287 38.7a1 1 0 0 1 -1-1v-11.145a1 1 0 0 1 2 0v11.145a1 1 0 0 1 -1 1z" fill="#FFFFFF"/><path d="m53.574 19.405h-8.574a1 1 0 0 1 -1-1v-2.105a5.285 5.285 0 1 1 10.57 0v2.106a1 1 0 0 1 -.996.999zm-7.57-2h6.57v-1.105a3.285 3.285 0 1 0 -6.57 0z" fill="#FFFFFF"/></svg>
