<?xml version="1.0"?>
<svg xmlns="http://www.w3.org/2000/svg" id="Icons" height="512px" viewBox="0 0 74 74" width="512px"><path d="m32.46 64.48h-3a1 1 0 1 1 0-2h3a1 1 0 0 1 0 2z" fill="#FFFFFF"/><path d="m67 64.48h-17.66a1 1 0 1 1 0-2h17.66a3 3 0 0 0 3-3v-38a3 3 0 0 0 -3-3h-60a3 3 0 0 0 -3 3v38a3 3 0 0 0 3 3h15.46a1 1 0 0 1 0 2h-15.46a5.006 5.006 0 0 1 -5-5v-38a5.006 5.006 0 0 1 5-5h60a5.006 5.006 0 0 1 5 5v38a5.006 5.006 0 0 1 -5 5z" fill="#FFFFFF"/><path d="m42.33 64.48h-2.93a1 1 0 0 1 0-2h2.93a1 1 0 0 1 0 2z" fill="#FFFFFF"/><path d="m37 54.794a14.313 14.313 0 1 1 14.312-14.312 14.328 14.328 0 0 1 -14.312 14.312zm0-26.625a12.313 12.313 0 1 0 12.312 12.313 12.327 12.327 0 0 0 -12.312-12.313z" fill="#FFFFFF"/><path d="m37 47.169a1 1 0 0 1 -1-1v-11.375a1 1 0 0 1 2 0v11.375a1 1 0 0 1 -1 1z" fill="#FFFFFF"/><path d="m42.688 41.482h-11.376a1 1 0 1 1 0-2h11.376a1 1 0 0 1 0 2z" fill="#FFFFFF"/><path d="m45.042 18.482h-16.084a1 1 0 0 1 -1-1v-5.047a2.921 2.921 0 0 1 2.917-2.917h12.25a2.921 2.921 0 0 1 2.917 2.917v5.047a1 1 0 0 1 -1 1zm-15.084-2h14.084v-4.047a.918.918 0 0 0 -.917-.917h-12.25a.918.918 0 0 0 -.917.917z" fill="#FFFFFF"/></svg>
