<?xml version="1.0"?>
<svg xmlns="http://www.w3.org/2000/svg" id="Icons" height="512px" viewBox="0 0 74 74" width="512px"><path d="m67.25 44.15a1 1 0 0 1 -.687-.273 10.592 10.592 0 0 0 -2.2-1.6 1 1 0 0 1 .957-1.756 12.6 12.6 0 0 1 2.619 1.9 1 1 0 0 1 -.687 1.727z" fill="#FFFFFF"/><path d="m59.06 64.78h-34.47a12.935 12.935 0 0 1 0-25.87h21.97a1 1 0 0 1 0 2h-21.97a10.935 10.935 0 0 0 0 21.87h34.47a10.947 10.947 0 0 0 10.94-10.93c0-.2-.01-.4-.019-.594a1 1 0 0 1 .953-1.045.984.984 0 0 1 1.045.953c.011.225.021.461.021.686a12.95 12.95 0 0 1 -12.94 12.93z" fill="#FFFFFF"/><path d="m57.81 40.91h-3.37a1 1 0 0 1 0-2h3.37a1 1 0 0 1 0 2z" fill="#FFFFFF"/><path d="m41.829 64.781a1 1 0 0 1 -1-1v-23.872a1 1 0 0 1 2 0v23.872a1 1 0 0 1 -1 1z" fill="#FFFFFF"/><path d="m14.926 63.262a12.936 12.936 0 0 1 -10.562-20.391l19.865-28.171a12.936 12.936 0 0 1 21.144 14.91l-7.665 10.871a1 1 0 1 1 -1.635-1.152l7.665-10.868a10.936 10.936 0 1 0 -17.874-12.606l-19.864 28.168a10.934 10.934 0 0 0 11.8 16.856 1 1 0 0 1 .521 1.931 12.978 12.978 0 0 1 -3.395.452z" fill="#FFFFFF"/><path d="m30.064 40.905a1 1 0 0 1 -.575-.182l-14.952-10.542a1 1 0 0 1 1.152-1.635l14.953 10.542a1 1 0 0 1 -.578 1.817z" fill="#FFFFFF"/></svg>
