<?xml version="1.0"?>
<svg xmlns="http://www.w3.org/2000/svg" id="Icons" height="512px" viewBox="0 0 74 74" width="512px"><path d="m60.49 45.25a1 1 0 0 1 -.937-1.35c.358-.959.672-1.937.931-2.908a1 1 0 1 1 1.932.516c-.276 1.033-.609 2.073-.989 3.092a1 1 0 0 1 -.937.65z" fill="#FFFFFF"/><path d="m37 72a1 1 0 0 1 -.5-.133c-16.593-9.55-26.5-25.159-26.5-41.757v-15.55a1 1 0 0 1 .594-.914l26-11.56a1 1 0 0 1 .812 0l26 11.56a1 1 0 0 1 .594.914v9.81a1 1 0 1 1 -2 0v-9.16l-25-11.116-25 11.116v14.9c0 15.707 9.333 30.522 25 39.733a53.956 53.956 0 0 0 18.266-17.243c.418-.649.776-1.247 1.1-1.834a1 1 0 0 1 1.755.96c-.345.629-.726 1.268-1.168 1.952a56.1 56.1 0 0 1 -19.453 18.189 1 1 0 0 1 -.5.133z" fill="#FFFFFF"/><path d="m62.781 35.31a.916.916 0 0 1 -.1-.005 1 1 0 0 1 -.892-1.1c.107-1.035.168-1.966.185-2.849a1.026 1.026 0 0 1 1.021-.979 1 1 0 0 1 .979 1.02c-.019.938-.083 1.923-.2 3.013a1 1 0 0 1 -.993.9z" fill="#FFFFFF"/><path d="m40.348 48h-6.7a1 1 0 0 1 -1-1v-7.652h-7.648a1 1 0 0 1 -1-1v-6.7a1 1 0 0 1 1-1h7.652v-7.648a1 1 0 0 1 1-1h6.7a1 1 0 0 1 1 1v7.652h7.648a1 1 0 0 1 1 1v6.7a1 1 0 0 1 -1 1h-7.652v7.648a1 1 0 0 1 -1 1zm-5.7-2h4.7v-7.652a1 1 0 0 1 1-1h7.652v-4.7h-7.652a1 1 0 0 1 -1-1v-7.648h-4.7v7.652a1 1 0 0 1 -1 1h-7.648v4.7h7.652a1 1 0 0 1 1 1z" fill="#FFFFFF"/></svg>
