<?xml version="1.0" encoding="UTF-8"?>
<svg xmlns="http://www.w3.org/2000/svg" id="Icons" viewBox="0 0 74 74" width="512px" height="512px"><path d="M8.451,49.91a1,1,0,0,1-.864-.5A30.39,30.39,0,0,1,6.18,46.705,1,1,0,0,1,8,45.875c.385.845.827,1.7,1.313,2.531a1,1,0,0,1-.862,1.5Z" fill="#FFFFFF"/><path d="M50.87,72H18.17a1,1,0,0,1-1-1,26.144,26.144,0,0,0-5.225-15.606,1,1,0,1,1,1.61-1.188A28.188,28.188,0,0,1,19.152,70H49.87V63.1a4.736,4.736,0,0,1,4.73-4.73h4.77a2.993,2.993,0,0,0,2.99-2.99V48.8a1,1,0,0,1,.677-.946l5.28-1.8L62.461,33.966a1,1,0,0,1-.1-.436,30.015,30.015,0,0,0-9.778-22.414A28.1,28.1,0,0,0,30.45,4.184C17.449,5.623,7.459,15.715,5.59,29.3a1,1,0,1,1-1.981-.272C5.6,14.519,16.3,3.738,30.229,2.2a30.071,30.071,0,0,1,23.687,7.43A32,32,0,0,1,64.359,33.3l6.25,12.9a1,1,0,0,1-.576,1.382L64.36,49.515V55.38a5,5,0,0,1-4.99,4.99H54.6a2.734,2.734,0,0,0-2.73,2.73V71A1,1,0,0,1,50.87,72Z" fill="#FFFFFF"/><path d="M4.919,40.69a1,1,0,0,1-.978-.793,28.1,28.1,0,0,1-.476-3.131,1,1,0,1,1,1.99-.192A26,26,0,0,0,5.9,39.482a1,1,0,0,1-.979,1.208Z" fill="#FFFFFF"/><path d="M36.767,48H29.233a1,1,0,0,1-1-1V38.266H19.5a1,1,0,0,1-1-1V29.734a1,1,0,0,1,1-1h8.733V20a1,1,0,0,1,1-1h7.534a1,1,0,0,1,1,1v8.734H46.5a1,1,0,0,1,1,1v7.532a1,1,0,0,1-1,1H37.767V47A1,1,0,0,1,36.767,48Zm-6.534-2h5.534V37.266a1,1,0,0,1,1-1H45.5V30.734H36.767a1,1,0,0,1-1-1V21H30.233v8.734a1,1,0,0,1-1,1H20.5v5.532h8.733a1,1,0,0,1,1,1Z" fill="#FFFFFF"/></svg>
