<?xml version="1.0"?>
<svg xmlns="http://www.w3.org/2000/svg" id="Icons" height="512px" viewBox="0 0 74 74" width="512px"><path d="m37 71a34 34 0 1 1 34-34 34.038 34.038 0 0 1 -34 34zm0-66a32 32 0 1 0 32 32 32.036 32.036 0 0 0 -32-32z" fill="#49C0D0"/><path d="m37 18a1 1 0 0 1 -1-1v-5a1 1 0 0 1 2 0v5a1 1 0 0 1 -1 1z" fill="#49C0D0"/><path d="m37 63a1 1 0 0 1 -1-1v-5a1 1 0 0 1 2 0v5a1 1 0 0 1 -1 1z" fill="#49C0D0"/><path d="m62 38h-5a1 1 0 0 1 0-2h5a1 1 0 0 1 0 2z" fill="#49C0D0"/><path d="m17 38h-5a1 1 0 0 1 0-2h5a1 1 0 0 1 0 2z" fill="#49C0D0"/><path d="m51.143 23.858a1 1 0 0 1 -.707-1.707l3.535-3.536a1 1 0 0 1 1.414 1.414l-3.535 3.536a1 1 0 0 1 -.707.293z" fill="#49C0D0"/><path d="m19.322 55.678a1 1 0 0 1 -.707-1.707l3.535-3.536a1 1 0 0 1 1.414 1.414l-3.535 3.536a1 1 0 0 1 -.707.293z" fill="#49C0D0"/><path d="m54.678 55.678a1 1 0 0 1 -.707-.293l-3.535-3.536a1 1 0 0 1 1.414-1.414l3.535 3.536a1 1 0 0 1 -.707 1.707z" fill="#49C0D0"/><path d="m22.857 23.858a1 1 0 0 1 -.707-.293l-3.535-3.536a1 1 0 0 1 1.414-1.414l3.535 3.536a1 1 0 0 1 -.707 1.707z" fill="#49C0D0"/><path d="m37 38h-7a1 1 0 0 1 0-2h6v-9a1 1 0 0 1 2 0v10a1 1 0 0 1 -1 1z" fill="#49C0D0"/></svg>
