<?xml version="1.0"?>
<svg xmlns="http://www.w3.org/2000/svg" height="512px" viewBox="0 0 74 74" width="512px"><g id="Numbers"><text font-family="ArialMT, Arial" font-size="18" transform="translate(31.994 -514.544)">7<tspan x="-5.005" y="124">17</tspan><tspan x="-5.005" y="248">27</tspan><tspan x="-5.005" y="372">37</tspan><tspan x="-5.005" y="496">47</tspan><tspan x="-5.005" y="620">57</tspan><tspan x="-5.005" y="744">67</tspan><tspan x="-5.005" y="868">77</tspan><tspan x="-5.005" y="992">87</tspan><tspan x="-5.005" y="1116">97</tspan><tspan x="-10.011" y="1240">107</tspan><tspan letter-spacing="-.074em" x="-9.343" y="1364">1</tspan><tspan x="-.668" y="1364">17</tspan><tspan x="-10.011" y="1488">127</tspan><tspan x="-10.011" y="1612">137</tspan><tspan x="-10.011" y="1736">147</tspan><tspan x="-10.011" y="1860">157</tspan><tspan x="-10.011" y="1984">167</tspan><tspan x="-10.011" y="2108">177</tspan><tspan x="-10.011" y="2232">187</tspan><tspan x="-10.011" y="2356">197</tspan><tspan x="-10.011" y="2480">207</tspan><tspan x="-10.011" y="2604">217</tspan><tspan x="-10.011" y="2728">227</tspan><tspan x="-10.011" y="2852">237</tspan><tspan x="-10.011" y="2976">247</tspan><tspan x="-10.011" y="3100">257</tspan><tspan x="-10.011" y="3224">267</tspan><tspan x="-10.011" y="3348">277</tspan><tspan x="-10.011" y="3472">287</tspan><tspan x="-10.011" y="3596">297</tspan></text></g><g id="Icons"><path d="m54.986 71.96c-7.853 0-21.16-7.819-33.894-20.553-7.581-7.581-13.741-15.72-17.347-22.918-3.745-7.512-4.255-13.207-1.424-16.038l8.213-8.212a7.643 7.643 0 0 1 10.8 0l5.866 5.861a7.645 7.645 0 0 1 0 10.8l-3.52 3.52c-.614.614-.693 2.426.928 5.669a41.426 41.426 0 0 0 7.676 10.124 41.432 41.432 0 0 0 10.124 7.675c3.243 1.622 5.054 1.542 5.669.928l3.523-3.516a7.644 7.644 0 0 1 10.8 0l5.865 5.866a7.637 7.637 0 0 1 0 10.8l-8.215 8.212a6.9 6.9 0 0 1 -5.064 1.782zm-39.052-67.96a5.619 5.619 0 0 0 -3.985 1.648l-8.214 8.217c-2.143 2.143-1.487 7.147 1.8 13.73 3.511 7.009 9.539 14.964 16.973 22.4 16.418 16.418 31.937 22.96 36.128 18.769l8.212-8.212a5.638 5.638 0 0 0 0-7.971l-5.865-5.866a5.642 5.642 0 0 0 -7.972 0l-3.52 3.52c-1.5 1.5-4.26 1.306-7.978-.554a43.412 43.412 0 0 1 -10.643-8.051 43.434 43.434 0 0 1 -8.05-10.644c-1.86-3.721-2.052-6.479-.554-7.978l3.52-3.52a5.644 5.644 0 0 0 0-7.972l-5.866-5.864a5.62 5.62 0 0 0 -3.986-1.652z" fill="#49C0D0"/><path d="m16.4 3.253h2v21.569h-2z" transform="matrix(.707 -.707 .707 .707 -4.829 16.416)" fill="#49C0D0"/><path d="m57.463 44.315h2v21.57h-2z" transform="matrix(.707 -.707 .707 .707 -21.838 57.478)" fill="#49C0D0"/></g></svg>
