<?xml version="1.0"?>
<svg xmlns="http://www.w3.org/2000/svg" id="Icons" height="512px" viewBox="0 0 74 74" width="512px"><path d="m45.45 34.571h-16.484a1 1 0 0 1 0-2h16.484a1 1 0 0 1 0 2z" fill="#FFFFFF"/><path d="m49.43 62.39h-2.93a1 1 0 0 1 0-2h2.93a1 1 0 0 1 0 2z" fill="#FFFFFF"/><path d="m29.56 62.39h-20.17a7.188 7.188 0 0 1 -7.18-7.18v-21.64a1 1 0 0 1 1-1h11.33a1 1 0 0 1 0 2h-10.33v20.64a5.186 5.186 0 0 0 5.18 5.18h20.17a1 1 0 1 1 0 2z" fill="#FFFFFF"/><path d="m39.56 62.39h-3a1 1 0 0 1 0-2h3a1 1 0 0 1 0 2z" fill="#FFFFFF"/><path d="m65.03 62.39h-8.59a1 1 0 0 1 0-2h8.59a5.186 5.186 0 0 0 5.18-5.18v-20.64h-10.34a1 1 0 0 1 0-2h11.34a1 1 0 0 1 1 1v21.64a7.188 7.188 0 0 1 -7.18 7.18z" fill="#FFFFFF"/><path d="m52.66 55.177a8.221 8.221 0 0 1 -8.212-8.212v-28.634a1 1 0 0 1 1-1h14.424a1 1 0 0 1 1 1v28.634a8.221 8.221 0 0 1 -8.212 8.212zm-6.212-35.846v27.634a6.212 6.212 0 0 0 12.424 0v-27.634z" fill="#FFFFFF"/><path d="m60.4 19.331h-15.484a3.86 3.86 0 0 1 0-7.72h15.484a3.86 3.86 0 1 1 0 7.72zm-15.488-5.72a1.86 1.86 0 0 0 0 3.72h15.488a1.86 1.86 0 1 0 0-3.72z" fill="#FFFFFF"/><path d="m21.751 55.177a8.221 8.221 0 0 1 -8.212-8.212v-28.634a1 1 0 0 1 1-1h14.424a1 1 0 0 1 1 1v28.634a8.221 8.221 0 0 1 -8.212 8.212zm-6.212-35.846v27.634a6.212 6.212 0 0 0 12.424 0v-27.634z" fill="#FFFFFF"/><path d="m29.5 19.331h-15.492a3.86 3.86 0 1 1 0-7.72h15.492a3.86 3.86 0 0 1 0 7.72zm-15.487-5.72a1.86 1.86 0 1 0 0 3.72h15.487a1.86 1.86 0 0 0 0-3.72z" fill="#FFFFFF"/></svg>
